<?xml version="1.0" encoding="UTF-8" standalone="no"?>
<svg
   xmlns:dc="http://purl.org/dc/elements/1.1/"
   xmlns:cc="http://creativecommons.org/ns#"
   xmlns:rdf="http://www.w3.org/1999/02/22-rdf-syntax-ns#"
   xmlns:svg="http://www.w3.org/2000/svg"
   xmlns="http://www.w3.org/2000/svg"
   id="svg8"
   version="1.1"
   viewBox="0 0 50.464428 37.339657"
   height="37.339657mm"
   width="50.464428mm">
  <defs
     id="defs2" />
  <metadata
     id="metadata5">
    <rdf:RDF>
      <cc:Work
         rdf:about="">
        <dc:format>image/svg+xml</dc:format>
        <dc:type
           rdf:resource="http://purl.org/dc/dcmitype/StillImage" />
        <dc:title></dc:title>
      </cc:Work>
    </rdf:RDF>
  </metadata>
  <g
     transform="translate(-90.687321,70.51279)"
     id="layer1">
    <path
       id="path252"
       d="m 98.899779,-33.805928 c -1.128181,-0.325358 -3.144915,-1.685238 -4.481625,-3.021954 -4.986786,-4.986782 -4.972835,-12.524812 0.03236,-17.530091 1.821731,-1.821741 2.640533,-3.291423 3.145481,-5.64584 1.308792,-6.102713 6.986255,-10.533453 13.465875,-10.508875 4.38502,0.01662 7.93157,1.510462 10.48176,4.414972 1.74319,1.985393 2.08758,2.11484 5.08786,1.912493 2.95085,-0.199012 3.41675,-0.03494 5.60981,1.975619 2.16014,1.980389 2.38757,2.484646 2.34929,5.208783 -0.0377,2.676714 0.16709,3.155801 1.8191,4.257346 3.80401,2.536478 5.3895,6.489606 4.50143,11.223458 -0.55822,2.975577 -4.21608,6.972204 -7.11923,7.778576 -2.86011,0.79442 -32.10136,0.74037 -34.892213,-0.06448 z m 35.869111,-1.856642 c 6.68061,-3.234034 6.85378,-12.384977 0.31152,-16.463424 -1.81558,-1.131836 -1.96776,-1.461937 -1.64155,-3.560767 0.7833,-5.039579 -4.65269,-9.10978 -9.03459,-6.764655 -0.8908,0.47674 -1.5588,0.04424 -3.47817,-2.25194 -2.87358,-3.437732 -5.3793,-4.575546 -10.07631,-4.575546 -6.3651,0 -11.315215,4.39399 -12.373857,10.9837 -0.297817,1.8538 -0.934646,2.949763 -2.301078,3.960005 -2.219675,1.641085 -4.235012,5.725655 -4.254408,8.622593 -0.01591,2.336248 1.400149,6.070875 2.972863,7.842007 0.58727,0.661357 2.190501,1.71803 3.562732,2.348162 2.206148,1.01307 4.295308,1.147279 18.047528,1.159394 14.55285,0.01273 15.72693,-0.07071 18.26532,-1.299529 z m -23.52614,-9.914133 v -4.989935 h -3.1187 c -1.71529,0 -3.11871,-0.217538 -3.11871,-0.483418 0,-0.26588 2.0964,-2.565825 4.65866,-5.110994 l 4.65867,-4.627578 4.54152,4.331317 c 2.49785,2.382224 4.63229,4.682172 4.7432,5.110996 0.14162,0.547788 -0.73948,0.779677 -2.96277,0.779677 h -3.16445 v 4.989935 4.989938 h -3.11871 -3.11871 z m 4.98995,-0.498993 c 0,-4.857882 0.56851,-5.738425 3.70503,-5.738425 l 1.74858,0.04176 -7.32485,-7.266374 -7.28307,7.308141 1.70682,-0.08354 c 3.13275,-0.153327 3.70503,0.880546 3.70503,5.738428 v 4.241445 h 1.87122 1.87124 z"
       style="fill:#000000;stroke-width:1" />
  </g>
</svg>
