<?xml version="1.0" encoding="UTF-8" standalone="no"?>
<svg
   xmlns:dc="http://purl.org/dc/elements/1.1/"
   xmlns:cc="http://creativecommons.org/ns#"
   xmlns:rdf="http://www.w3.org/1999/02/22-rdf-syntax-ns#"
   xmlns:svg="http://www.w3.org/2000/svg"
   xmlns="http://www.w3.org/2000/svg"
   id="svg8"
   version="1.1"
   viewBox="0 0 73.293549 50.052509"
   height="50.052509mm"
   width="73.293549mm">
  <defs
     id="defs2" />
  <metadata
     id="metadata5">
    <rdf:RDF>
      <cc:Work
         rdf:about="">
        <dc:format>image/svg+xml</dc:format>
        <dc:type
           rdf:resource="http://purl.org/dc/dcmitype/StillImage" />
        <dc:title></dc:title>
      </cc:Work>
    </rdf:RDF>
  </metadata>
  <g
     transform="translate(201.8744,61.619016)"
     id="layer1">
    <path
       id="path278"
       d="m -195.25147,-12.230162 c -0.47081,-0.83923 -0.37034,-9.2895 -0.141,-14.730004 0.042,-0.999853 -1.39346,-0.388171 -1.44868,-2.685292 -0.0553,-2.297122 1.67913,-2.472395 1.88929,-3.105441 0.53857,-2.073237 1.00318,-3.921883 1.49114,-6.185493 0.16236,-0.753679 1.13226,-3.026508 0.76089,-4.012873 -0.58036,-1.541398 -3.29996,-2.077206 -4.42574,-2.543935 -4.43282,-1.525522 -6.10585,-3.018984 -3.53784,-4.956724 1.81434,-1.369041 33.16969,-11.169092 35.7356,-11.169092 3.97696,0 35.55494,10.886923 36.16133,12.467091 0.88746,2.312751 -1.29827,3.909757 -8.91761,6.515582 l -6.42796,2.198384 0.41207,6.187448 c 0.7495,11.253819 -4.76955,15.004469 -22.02197,14.965689 -7.21822,-0.0163 -10.87388,-0.62614 -14.49693,-2.4187 l -4.8448,-2.397 0.14779,6.05296 0.14778,6.05295 -4.97224,0.36234 c -2.73475,0.19927 -5.2147,-0.0698 -5.51098,-0.59789 z m 8.13001,-13.95088 c -0.0305,-0.673087 -3.4e-4,-0.35792 -0.0271,-0.980332 -0.0237,-0.60345 1.73909,-0.408845 1.71727,-2.759748 -0.0203,-2.350904 -1.96901,-1.997635 -1.98332,-2.619554 -0.26676,-11.599008 1.46363,-10.734964 12.52813,-7.050144 l 9.67644,3.222549 17.55772,-5.556101 c 9.65678,-3.055859 17.09396,-5.999299 16.52712,-6.540982 -1.28214,-1.225212 -31.5015,-10.762127 -34.10168,-10.762127 -2.58158,0 -32.4331,9.538609 -33.74016,10.781159 -0.57416,0.545816 1.17466,1.657096 3.88626,2.46951 2.71159,0.812407 4.66254,1.852125 4.64684,2.241281 -0.017,0.389152 -0.33489,2.378659 -1.0205,5.009349 -0.80414,2.606825 -1.19327,4.4674 -1.4024,6.461047 -0.0715,0.681017 -1.89261,0.635316 -1.90373,2.415258 -0.0102,1.779941 1.6128,2.176885 1.6046,2.831774 -0.0169,1.304118 0.0637,2.15544 0.0393,3.364751 l -0.4153,9.86509 h 3.47446 3.47449 z m 36.81254,1.93294 c 3.30413,-1.923301 3.85328,-2.955233 4.16976,-7.835286 0.23659,-3.648474 -0.11796,-5.620254 -1.01016,-5.620254 -0.75601,0 -5.09027,1.128602 -9.63167,2.508006 l -8.25705,2.50801 -8.25708,-2.50801 c -4.54139,-1.379404 -9.35575,-3.5838 -10.07573,-3.5838 -2.26268,0 -1.05884,11.741942 0.56033,13.924653 5.20829,4.713411 25.16306,4.878401 32.5016,0.606681 z"
       style="fill:#000000;stroke-width:1" />
  </g>
</svg>
