<?xml version="1.0" encoding="UTF-8" standalone="no"?>
<svg
   xmlns:dc="http://purl.org/dc/elements/1.1/"
   xmlns:cc="http://creativecommons.org/ns#"
   xmlns:rdf="http://www.w3.org/1999/02/22-rdf-syntax-ns#"
   xmlns:svg="http://www.w3.org/2000/svg"
   xmlns="http://www.w3.org/2000/svg"
   id="svg8"
   version="1.1"
   viewBox="0 0 28.913197 28.611591"
   height="28.611591mm"
   width="28.913197mm">
  <defs
     id="defs2" />
  <metadata
     id="metadata5">
    <rdf:RDF>
      <cc:Work
         rdf:about="">
        <dc:format>image/svg+xml</dc:format>
        <dc:type
           rdf:resource="http://purl.org/dc/dcmitype/StillImage" />
        <dc:title></dc:title>
      </cc:Work>
    </rdf:RDF>
  </metadata>
  <g
     transform="translate(-23.485438,67.081691)"
     id="layer1">
    <path
       id="path276"
       d="m 33.965982,-40.336071 c -0.434117,-2.170602 -0.424191,-2.166895 -2.376358,-0.887785 -1.428519,0.935999 -1.59524,0.883493 -3.865563,-1.217356 l -2.372655,-2.195545 1.054419,-1.883644 1.054419,-1.883646 -1.987411,-0.514986 c -1.889629,-0.489652 -1.987395,-0.662704 -1.987395,-3.517616 0,-3.027055 0.329193,-3.498269 3.039116,-4.350278 1.090863,-0.34297 1.101777,-0.447715 0.155508,-1.493334 -1.41861,-1.567542 -1.277596,-2.553121 0.653696,-4.568956 1.664372,-1.737237 4.127934,-2.306301 4.85956,-1.12252 0.700507,1.133444 1.394597,0.646356 1.772664,-1.243981 0.356256,-1.781282 0.517512,-1.865973 3.552731,-1.865973 2.961644,0 3.227804,0.127879 3.883864,1.865973 0.730761,1.936001 1.327827,2.309875 1.986583,1.243981 0.785331,-1.270696 3.325624,-0.603847 4.920634,1.291706 1.87489,2.228179 1.90957,2.428763 0.69707,4.031837 -1.290009,1.705528 -1.172108,2.140354 0.580315,2.140354 1.756194,0 2.825336,1.581119 2.811319,4.157548 -0.01234,2.284745 -0.559475,3.025766 -2.602706,3.525582 -1.674829,0.409698 -1.676468,0.415738 -0.621979,2.299365 l 1.057241,1.888588 -2.337763,2.163573 c -2.254314,2.086338 -2.40157,2.130579 -4.125095,1.239317 -1.756248,-0.908191 -1.793714,-0.892205 -2.156107,0.919756 -0.35564,1.77822 -0.491965,1.844012 -3.82085,1.844012 -3.338018,0 -3.464381,-0.06164 -3.825257,-1.865972 z m 6.513581,-0.814224 c 0.250293,-2.182815 1.434479,-2.679626 3.367745,-1.412905 1.417235,0.928615 1.577627,0.887599 3.215975,-0.822477 1.668727,-1.741779 1.690731,-1.851154 0.681977,-3.390705 -1.263933,-1.92901 -0.925376,-2.611618 1.539877,-3.104666 1.717108,-0.343423 1.87891,-0.591377 1.87891,-2.879298 0,-2.000677 -0.22598,-2.503513 -1.125103,-2.503513 -0.618804,0 -1.652859,-0.38591 -2.297916,-0.85758 -1.13101,-0.827012 -1.133248,-0.917954 -0.06312,-2.551208 1.094565,-1.670514 1.086455,-1.717906 -0.594349,-3.472279 -1.688334,-1.762247 -1.718959,-1.768217 -3.321234,-0.647434 -2.088333,1.460792 -3.172143,1.040129 -3.172143,-1.231209 0,-1.735432 -0.121479,-1.814141 -2.798962,-1.814141 -2.580155,0 -2.798959,0.123084 -2.798959,1.574499 0,1.996367 -1.449941,2.573115 -3.345829,1.330884 -1.389784,-0.910622 -1.564633,-0.864829 -3.194906,0.836807 -1.672253,1.745467 -1.692794,1.848763 -0.67607,3.400488 1.264742,1.930225 0.951082,2.583793 -1.498215,3.121744 -1.676397,0.3682 -1.858828,0.646441 -1.858828,2.834964 0,2.131159 0.208296,2.477674 1.710461,2.845308 2.31366,0.566236 2.776375,1.486582 1.628298,3.238759 -0.905999,1.382732 -0.861374,1.574146 0.761988,3.26858 1.638366,1.710076 1.798739,1.751092 3.215993,0.822477 1.879226,-1.231315 3.257108,-0.735956 3.257108,1.170955 0,2.015602 0.530912,2.389457 3.087724,2.174259 1.894179,-0.159421 2.226986,-0.427432 2.399561,-1.932309 z m -5.805546,-8.523672 c -2.520545,-2.785165 -0.5246,-7.455865 3.186125,-7.455865 3.599754,0 5.507508,5.697274 2.591653,7.739619 -1.906733,1.335532 -4.424245,1.211895 -5.777778,-0.283754 z m 5.66238,-1.54695 c 0.945512,-1.443025 0.943731,-1.669636 -0.02468,-3.147511 -1.376259,-2.100452 -3.974681,-1.873285 -5.279253,0.461544 -0.850549,1.522228 -0.830255,1.780378 0.232274,2.954456 1.590868,1.757887 3.821219,1.639814 5.071593,-0.268489 z"
       style="fill:#000000;stroke-width:1.00000012" />
  </g>
</svg>
