<?xml version="1.0" encoding="UTF-8" standalone="no"?>
<svg
   xmlns:dc="http://purl.org/dc/elements/1.1/"
   xmlns:cc="http://creativecommons.org/ns#"
   xmlns:rdf="http://www.w3.org/1999/02/22-rdf-syntax-ns#"
   xmlns:svg="http://www.w3.org/2000/svg"
   xmlns="http://www.w3.org/2000/svg"
   id="svg8"
   version="1.1"
   viewBox="0 0 71.933975 60.634785"
   height="60.634785mm"
   width="71.933975mm">
  <defs
     id="defs2" />
  <metadata
     id="metadata5">
    <rdf:RDF>
      <cc:Work
         rdf:about="">
        <dc:format>image/svg+xml</dc:format>
        <dc:type
           rdf:resource="http://purl.org/dc/dcmitype/StillImage" />
        <dc:title></dc:title>
      </cc:Work>
    </rdf:RDF>
  </metadata>
  <g
     transform="translate(-140.19214,76.240519)"
     id="layer1">
    <path
       id="path256"
       d="m 161.74313,-17.101553 c -0.32282,-0.8412 -1.29711,-1.52945 -2.16516,-1.52945 -0.86805,0 -3.32418,-1.83535 -5.45806,-4.07856 -2.13392,-2.2432 -4.8159,-4.07855 -5.95997,-4.07855 -3.34253,0 -5.88652,-3.46411 -7.20375,-9.809214 -3.11772,-15.01792 3.41932,-28.491843 17.5367,-36.146 6.23463,-3.38029 6.82515,-3.497192 17.66624,-3.497192 10.84107,0 11.43162,0.116913 17.66625,3.497192 14.11735,7.654157 20.65439,21.12808 17.5367,36.146 -1.31723,6.345104 -3.86126,9.809214 -7.20378,9.809214 -1.14404,0 -3.82602,1.83535 -5.95994,4.07855 -2.13392,2.24321 -4.59004,4.07856 -5.45809,4.07856 -0.86802,0 -1.84234,0.68825 -2.16513,1.52945 -0.74255,1.93507 -6.11708,2.01379 -7.69485,0.11272 -0.78871,-0.95035 -1.08155,-5.72599 -0.88955,-14.50686 0.28585,-13.072277 0.28981,-13.091384 2.93777,-14.021039 1.93157,-0.678142 6.09333,0.174283 5.67412,2.915675 1.48142,0.453208 3.46767,0.534904 6.20413,2.399731 l 3.31383,2.258264 v -5.062335 c 0,-6.327209 -1.03276,-9.075965 -5.18825,-13.808809 -5.15267,-5.868567 -10.4074,-8.149727 -18.77321,-8.149727 -8.3658,0 -13.62056,2.28116 -18.77323,8.149727 -4.15549,4.732844 -5.18825,7.4816 -5.18825,13.808809 v 5.062335 l 3.05893,-2.069799 c 1.68239,-1.138391 4.98683,-1.820765 6.75307,-3.021139 0.002,-2.359172 3.30576,-3.211001 5.38008,-2.482732 2.64796,0.929655 2.65197,0.948762 2.9378,14.021039 0.19191,8.78087 -0.10087,13.55651 -0.88958,14.50686 -1.57777,1.90109 -6.95227,1.82236 -7.69482,-0.11272 z m 6.54427,-13.5102 c -0.2766,-12.606277 -0.3549,-13.010247 -2.57954,-13.3262 -1.54311,-0.219143 -2.29419,0.198129 -2.29419,1.27455 0,0.899329 -0.85903,1.600368 -1.96104,1.600368 -1.07858,0 -3.3243,1.147093 -4.99047,2.549099 -3.82851,3.221477 -5.07946,3.209751 -5.89895,-0.0553 -2.27396,-9.060146 2.46066,-19.051902 11.63705,-24.558352 9.31192,-5.587786 18.61704,-5.581271 27.95046,0.01965 9.14408,5.487199 13.87506,15.491442 11.60431,24.53878 -0.81946,3.265056 -2.07041,3.276782 -5.89892,0.0553 -1.66621,-1.402003 -3.91192,-2.549096 -4.99047,-2.549096 -1.10201,0 -1.96105,-0.701039 -1.96105,-1.600371 0,-1.076431 -0.7511,-1.493703 -2.29418,-1.27455 -2.22464,0.315953 -2.30286,0.719923 -2.57957,13.326212 l -0.28528,13.00037 h 2.47047 c 1.35876,0 2.73458,-0.68825 3.0574,-1.52945 0.32279,-0.8412 1.47142,-1.52946 2.55255,-1.52946 1.08109,0 3.40288,-1.63692 5.15949,-3.63759 2.11025,-2.40344 4.39836,-3.83306 6.74408,-4.21371 3.28819,-0.53361 3.67064,-0.99028 5.18143,-6.187248 3.29548,-11.336019 0.12833,-22.965792 -8.39384,-30.821133 -14.18336,-13.073787 -34.53245,-13.073787 -48.71584,0 -8.52309,7.856314 -11.68934,19.48495 -8.39286,30.824407 1.56846,5.395374 1.79162,5.639894 5.72054,6.268154 2.24863,0.35957 4.08843,1.04461 4.08843,1.52231 0,1.6471 5.38083,6.24481 7.3085,6.24481 1.0627,0 2.19634,0.68826 2.51913,1.52946 0.32279,0.8412 1.69861,1.52946 3.05737,1.52946 h 2.47047 z"
       style="fill:#000000;stroke-width:1.00000012" />
  </g>
</svg>
