<?xml version="1.0" encoding="UTF-8" standalone="no"?>
<svg
   xmlns:dc="http://purl.org/dc/elements/1.1/"
   xmlns:cc="http://creativecommons.org/ns#"
   xmlns:rdf="http://www.w3.org/1999/02/22-rdf-syntax-ns#"
   xmlns:svg="http://www.w3.org/2000/svg"
   xmlns="http://www.w3.org/2000/svg"
   id="svg8"
   version="1.1"
   viewBox="0 0 40.201729 39.589821"
   height="39.589821mm"
   width="40.201729mm">
  <defs
     id="defs2" />
  <metadata
     id="metadata5">
    <rdf:RDF>
      <cc:Work
         rdf:about="">
        <dc:format>image/svg+xml</dc:format>
        <dc:type
           rdf:resource="http://purl.org/dc/dcmitype/StillImage" />
        <dc:title></dc:title>
      </cc:Work>
    </rdf:RDF>
  </metadata>
  <g
     transform="translate(-226.41766,63.062098)"
     id="layer1">
    <path
       id="path254"
       d="m 238.95738,-24.382186 c -3.06964,-1.121132 -3.0532,-3.380724 0.0413,-5.668544 1.33567,-0.987502 3.38588,-3.600137 4.55601,-5.80586 1.17013,-2.20572 2.5413,-4.010399 3.04706,-4.010399 0.50575,0 1.61296,1.571668 2.46046,3.492597 0.84753,1.920929 2.87589,4.55776 4.50751,5.859631 3.71613,2.965088 3.79071,4.948233 0.23278,6.188527 -3.33644,1.163094 -11.59253,1.131976 -14.84506,-0.05596 z m 11.98594,-0.830274 c 2.12122,-0.534131 3.85678,-1.241953 3.85678,-1.572936 0,-0.33098 -1.11668,-1.427382 -2.48153,-2.436446 -1.36482,-1.009064 -3.28284,-3.45431 -4.26227,-5.433882 -1.62947,-3.293467 -1.83263,-3.435724 -2.39159,-1.674592 -0.33599,1.058547 -2.18616,3.633645 -4.11154,5.722435 -1.92538,2.08879 -3.26808,4.030416 -2.98379,4.314721 0.52637,0.52637 5.32259,1.80169 7.3824,1.96299 0.6241,0.04887 2.87031,-0.348158 4.99154,-0.88229 z m -20.78693,-6.385068 c -1.16359,-1.255522 -2.57007,-4.177189 -3.12553,-6.492596 -2.28135,-9.509711 1.9223,-18.585745 10.62288,-22.935673 6.65993,-3.329707 7.59732,-2.585612 7.59732,6.030744 0,12.173124 -3.3373,20.049192 -10.19165,24.052345 l -2.78743,1.627944 z m 7.39975,-3.637268 c 4.33095,-4.659923 5.41161,-7.925945 5.79937,-17.52738 l 0.36301,-8.988771 -2.05504,0.634836 c -10.76968,3.326955 -16.54515,14.673221 -12.45356,24.465772 2.57479,6.162362 3.74937,6.361573 8.34622,1.415543 z m 17.32797,1.611146 c -5.34871,-5.348701 -7.02878,-10.412642 -7.02878,-21.185726 0,-9.242645 0.54649,-9.706666 7.45232,-6.327952 10.44762,5.111551 14.3932,17.745238 8.70749,27.881374 -1.03577,1.846518 -2.54787,3.485302 -3.36021,3.641744 -0.86396,0.166394 -3.25907,-1.497693 -5.77082,-4.00944 z m 9.43855,-4.359596 c 2.78932,-10.04261 -2.71685,-19.996944 -12.77792,-23.100548 -1.92424,-0.593587 -1.95321,-0.48812 -1.95321,7.114176 0,10.11381 1.57571,14.6696 6.711,19.403137 l 3.97864,3.667372 1.57829,-1.949128 c 0.86808,-1.07202 1.97652,-3.382775 2.4632,-5.135009 z"
       style="fill:#000000;stroke-width:1" />
  </g>
</svg>
