<?xml version="1.0" encoding="UTF-8" standalone="no"?>
<svg
   xmlns:dc="http://purl.org/dc/elements/1.1/"
   xmlns:cc="http://creativecommons.org/ns#"
   xmlns:rdf="http://www.w3.org/1999/02/22-rdf-syntax-ns#"
   xmlns:svg="http://www.w3.org/2000/svg"
   xmlns="http://www.w3.org/2000/svg"
   viewBox="0 0 59.272388 58.68922"
   height="58.68922"
   width="59.272388"
   id="svg2"
   version="1.1">
  <metadata
     id="metadata8">
    <rdf:RDF>
      <cc:Work
         rdf:about="">
        <dc:format>image/svg+xml</dc:format>
        <dc:type
           rdf:resource="http://purl.org/dc/dcmitype/StillImage" />
        <dc:title></dc:title>
      </cc:Work>
    </rdf:RDF>
  </metadata>
  <defs
     id="defs6" />
  <path
     id="path12"
     d="M 15.96766,55.925549 C -1.1088595,47.260024 -5.3491865,24.586843 7.4514335,10.388969 19.946717,-3.4702414 39.452734,-3.4619994 51.95763,10.407774 63.746446,23.483308 60.928962,44.543843 46.075936,54.37311 38.425662,59.435822 24.318517,60.163213 15.96766,55.925549 Z m 29.963857,-4.729476 c 7.92064,-6.401941 10.431187,-11.710348 10.431187,-22.056143 0,-7.713177 -0.52996,-9.647737 -4.017834,-14.666667 C 44.5147,3.2059194 29.356433,-0.5598056 16.99639,5.6917404 1.8948315,13.32991 -2.1351875,34.438968 9.0713855,47.202551 15.26309,54.254513 20.249398,56.166258 31.26485,55.711502 39.662393,55.364822 41.457668,54.81211 45.931517,51.196073 Z M 22.362704,49.801432 C 14.603848,46.607688 7.7947225,37.138617 7.7253205,29.446039 7.6329625,19.20905 19.103965,8.0250737 29.696037,8.0250737 c 10.592072,0 22.063075,11.1839763 21.970717,21.4209653 -0.04839,5.363901 -4.711454,13.975484 -9.359834,17.285422 -4.374108,3.11464 -15.627484,4.846848 -19.944216,3.069971 z m 19.998682,-6.441763 c 12.66238,-12.13133 4.700346,-32.667928 -12.665349,-32.667928 -17.092434,0 -25.4067415,20.694381 -12.96918,32.280392 4.896885,4.561615 6.475281,5.053896 14.665349,4.573935 5.570964,-0.326473 7.846939,-1.195101 10.96918,-4.186399 z M 19.747681,34.0873 c -2.403015,-2.895454 0.441305,-6.062226 5.444949,-6.062226 3.715199,0 3.83674,-0.211188 3.83674,-6.666667 0,-6.25164 0.211006,-6.666666 3.389419,-6.666666 3.372272,0 3.387449,0.05228 3,10.333333 l -0.389419,10.333333 -6.785097,0.39556 C 23.376012,36.037779 20.975668,35.566934 19.747681,34.0873 Z m 13.317549,-17.330587 -1.846964,-0.03016 -0.307973,6.761801 c -0.301388,6.617254 0.0526,6.542224 -4.880923,6.950543 -7.043536,0.582952 -6.243209,2.919513 1,2.919513 h 6 c -0.139649,-5.555555 0.175507,-11.046139 0.03586,-16.601694 z"
     style="fill:#000000;stroke-width:1" />
</svg>
