<?xml version="1.0" encoding="UTF-8" standalone="no"?>
<svg
   xmlns:dc="http://purl.org/dc/elements/1.1/"
   xmlns:cc="http://creativecommons.org/ns#"
   xmlns:rdf="http://www.w3.org/1999/02/22-rdf-syntax-ns#"
   xmlns:svg="http://www.w3.org/2000/svg"
   xmlns="http://www.w3.org/2000/svg"
   id="svg8"
   version="1.1"
   viewBox="0 0 16.29571 29.764702"
   height="29.764702mm"
   width="16.29571mm">
  <defs
     id="defs2" />
  <metadata
     id="metadata5">
    <rdf:RDF>
      <cc:Work
         rdf:about="">
        <dc:format>image/svg+xml</dc:format>
        <dc:type
           rdf:resource="http://purl.org/dc/dcmitype/StillImage" />
        <dc:title></dc:title>
      </cc:Work>
    </rdf:RDF>
  </metadata>
  <g
     transform="translate(-68.744484,73.937173)"
     id="layer1">
    <path
       id="path270"
       d="m 74.96549,-44.436146 c -0.217674,-0.217667 -0.395752,-0.915483 -0.395752,-1.550701 0,-0.805511 -0.692729,-1.490043 -2.289576,-2.262514 -1.259272,-0.609164 -2.646582,-1.646797 -3.082919,-2.305854 -0.723764,-1.093213 -0.65662,-1.34962 0.765841,-2.924238 l 1.559184,-1.725954 2.134303,1.154815 c 2.401609,1.299444 4.974246,1.264264 5.22718,-0.07148 0.117484,-0.620431 -0.851614,-1.328687 -3.228517,-2.359531 -4.602774,-1.996165 -6.62696,-4.081182 -6.624274,-6.823351 0.0031,-2.675492 1.61747,-5.364937 3.801908,-6.33187 1.104532,-0.488912 1.743655,-1.210861 1.850568,-2.090413 0.210433,-1.730955 1.544404,-2.546711 3.402071,-2.080464 1.094733,0.274762 1.470963,0.718887 1.470963,1.73641 0,1.018709 0.459033,1.559096 1.800778,2.119954 2.969786,1.241382 3.53377,2.287763 2.453755,4.552558 -1.023676,2.146693 -1.646841,2.299388 -4.195383,1.02801 -1.955377,-0.975468 -4.49181,-0.661594 -4.49181,0.555843 0,0.417023 1.635203,1.453189 3.633741,2.302593 2.012469,0.85531 4.264035,2.2934 5.046368,3.223159 1.201802,1.428264 1.374148,2.079174 1.154809,4.361771 -0.265814,2.766415 -2.22339,5.57551 -4.357394,6.252815 -0.544743,0.172897 -1.052734,0.971776 -1.149123,1.807151 -0.147012,1.273972 -0.464939,1.521857 -2.131854,1.662157 -1.077517,0.09069 -2.137193,-0.01319 -2.354867,-0.230869 z m 4.036907,-2.390065 c 0,-1.126124 0.332692,-1.730511 1.083832,-1.96891 1.940329,-0.615841 3.902931,-3.514504 3.902931,-5.764463 0,-2.565549 -1.70541,-4.295623 -6.240287,-6.330567 -3.73825,-1.677474 -4.470526,-2.875248 -2.656067,-4.3445 1.557346,-1.261073 2.374217,-1.276581 4.869578,-0.09245 1.864091,0.884571 1.995129,0.87946 2.715642,-0.105908 1.233733,-1.687226 0.885146,-2.524594 -1.429466,-3.433799 -1.671373,-0.656533 -2.226184,-1.200841 -2.354867,-2.310288 -0.129891,-1.119757 -0.516519,-1.49146 -1.69206,-1.626723 -1.357027,-0.156137 -1.523735,0.0031 -1.523735,1.456512 0,1.294805 -0.347188,1.775647 -1.681033,2.328143 -5.753704,2.383263 -4.871824,8.957045 1.521756,11.343587 3.175053,1.185164 4.591937,2.31921 4.591937,3.675305 0,2.240147 -3.657457,2.787296 -6.608019,0.988545 l -1.898315,-1.157272 -1.004955,1.297864 c -0.985526,1.272769 -0.977091,1.322472 0.435835,2.570655 0.792417,0.700034 2.161224,1.416881 3.041784,1.592993 1.319788,0.26396 1.60101,0.600012 1.60101,1.913196 0,1.400603 0.200759,1.592995 1.66225,1.592995 1.469061,0 1.662249,-0.188844 1.662249,-1.624915 z"
       style="fill:#000000;stroke-width:0.99999988" />
  </g>
</svg>
