<?xml version="1.0" encoding="UTF-8" standalone="no"?>
<svg
   xmlns:dc="http://purl.org/dc/elements/1.1/"
   xmlns:cc="http://creativecommons.org/ns#"
   xmlns:rdf="http://www.w3.org/1999/02/22-rdf-syntax-ns#"
   xmlns:svg="http://www.w3.org/2000/svg"
   xmlns="http://www.w3.org/2000/svg"
   id="svg8"
   version="1.1"
   viewBox="0 0 14.646628 19.11939"
   height="19.11939mm"
   width="14.646628mm">
  <defs
     id="defs2" />
  <metadata
     id="metadata5">
    <rdf:RDF>
      <cc:Work
         rdf:about="">
        <dc:format>image/svg+xml</dc:format>
        <dc:type
           rdf:resource="http://purl.org/dc/dcmitype/StillImage" />
        <dc:title></dc:title>
      </cc:Work>
    </rdf:RDF>
  </metadata>
  <g
     transform="translate(82.930652,65.100459)"
     id="layer1">
    <path
       id="path260"
       d="m -82.344835,-46.566878 c -0.523003,-0.523004 -0.585817,-0.976363 -0.585817,-4.228106 0,-3.741443 0.266603,-5.144968 0.977302,-5.144968 0.304189,0 0.442882,-0.647112 0.553136,-2.580822 0.08094,-1.419451 0.313035,-2.902301 0.515781,-3.295221 0.539956,-1.046429 1.782477,-2.311887 2.786772,-2.838213 1.144582,-0.599848 3.843993,-0.593819 5.009192,0.01118 2.860917,1.485473 4.439761,5.998776 2.287462,6.538969 -1.19601,0.30018 -2.100854,-0.296343 -2.457267,-1.619965 -0.554567,-2.0595 -2.579208,-2.749915 -3.973976,-1.355148 -0.627276,0.627277 -0.718957,0.982115 -0.718957,2.782631 v 2.063674 h 4.247175 c 5.642088,0 5.418807,-0.215376 5.418807,5.226956 0,3.556739 -0.06586,4.114922 -0.535653,4.540083 -0.462926,0.418941 -1.37762,0.484759 -6.736897,0.484759 -5.810698,0 -6.238137,-0.03689 -6.78706,-0.585817 z m 13.122304,-0.35149 c 0.488004,-0.488006 0.488004,-7.88918 0,-8.377185 -0.242751,-0.24275 -1.737925,-0.35149 -4.832991,-0.35149 h -4.422658 c 0.02921,-1.73929 -0.337468,-4.695927 0.858585,-5.79985 0.872823,-0.767696 2.118354,-1.199851 3.449486,-0.511496 0.766172,0.396203 1.171254,1.071687 1.643107,2.739908 0.156021,0.551616 0.361385,0.659219 1.118044,0.585817 0.769974,-0.07469 0.942798,-0.228249 1.020709,-0.906911 0.05159,-0.449347 -0.195048,-1.413658 -0.548075,-2.142915 -1.583037,-3.270115 -5.775989,-3.945478 -8.2635,-1.331009 -1.29448,1.360548 -1.533367,2.544297 -1.641242,5.143894 -0.07628,1.838269 -0.166089,2.021773 -0.698273,2.372786 -0.629768,0.276296 -0.662685,0.462994 -0.741001,4.202873 -0.0552,2.635922 0.02824,4.046509 0.255546,4.320402 0.455186,0.548464 12.258102,0.599333 12.80226,0.05517 z"
       style="fill:#000000;stroke-width:0.99999994" />
  </g>
</svg>
