<?xml version="1.0" encoding="UTF-8" standalone="no"?>
<svg
   xmlns:dc="http://purl.org/dc/elements/1.1/"
   xmlns:cc="http://creativecommons.org/ns#"
   xmlns:rdf="http://www.w3.org/1999/02/22-rdf-syntax-ns#"
   xmlns:svg="http://www.w3.org/2000/svg"
   xmlns="http://www.w3.org/2000/svg"
   id="svg8"
   version="1.1"
   viewBox="0 0 26.215326 25.868437"
   height="25.868437mm"
   width="26.215326mm">
  <defs
     id="defs2" />
  <metadata
     id="metadata5">
    <rdf:RDF>
      <cc:Work
         rdf:about="">
        <dc:format>image/svg+xml</dc:format>
        <dc:type
           rdf:resource="http://purl.org/dc/dcmitype/StillImage" />
        <dc:title></dc:title>
      </cc:Work>
    </rdf:RDF>
  </metadata>
  <g
     transform="translate(15.794242,70.083665)"
     id="layer1">
    <path
       id="path274"
       d="m -6.1252224,-45.143894 c -0.8080403,-0.892881 -0.8399494,-1.295311 -0.2569117,-3.241301 0.6440768,-2.149728 0.6130649,-2.27446 -0.9551948,-3.842731 -1.5725542,-1.572543 -1.6878626,-1.600814 -3.8666981,-0.94802 -2.076849,0.622238 -2.333988,0.584672 -3.418011,-0.499348 l -1.172204,-1.172207 1.30936,-2.468198 c 2.351694,-4.432959 3.019406,-5.00696 5.8244437,-5.00696 2.3110609,0 2.7596744,-0.232152 5.4569134,-2.823866 3.78138307,-3.633459 6.3410706,-4.836125 10.4131566,-4.8926 l 3.2114533,-0.04454 -0.03854,3.537197 c -0.04461,4.086156 -1.3722053,6.838807 -4.9861783,10.338218 -1.899971,1.839736 -2.21282,2.48869 -2.523488,5.234541 l -0.354618,3.13444 -3.16918833,1.857411 c -3.65571187,2.142555 -4.21597567,2.228318 -5.47423707,0.837957 z m 4.7882436,-1.666622 c 2.7970405,-1.600313 2.8272025,-1.645243 3.1874975,-4.749619 0.32611,-2.809748 0.614823,-3.376379 2.790412,-5.476357 2.98029,-2.876739 4.965045,-6.88625 4.972069,-10.044415 l 0.0045,-2.349659 -2.969064,0.306435 c -3.533479,0.364692 -6.54540413,2.021484 -9.8543094,5.420647 -2.2139599,2.274351 -2.5817642,2.451308 -5.0950561,2.451308 h -2.7088482 l -1.729404,3.145799 c -1.489303,2.709034 -1.620802,3.235936 -0.947125,3.795037 0.611986,0.507906 1.208421,0.508603 2.739828,0.0031 1.9117588,-0.630942 2.0084057,-0.595172 4.1333183,1.529729 2.1185407,2.118547 2.1595962,2.228453 1.5611143,4.178491 -0.4435456,1.445199 -0.4526628,2.197897 -0.032781,2.703858 0.7695344,0.927245 0.7000593,0.943344 3.9471408,-0.91445 z m 5.2624775,-17.381909 c -0.185379,-0.483119 -0.0804,-1.135048 0.233259,-1.448733 0.815507,-0.815498 2.360644,-0.07015 2.147612,1.035957 -0.237263,1.232063 -1.952376,1.529414 -2.380871,0.412776 z"
       style="fill:#000000;stroke-width:0.99999988" />
  </g>
</svg>
