<?xml version="1.0" encoding="UTF-8" standalone="no"?>
<svg
   xmlns:dc="http://purl.org/dc/elements/1.1/"
   xmlns:cc="http://creativecommons.org/ns#"
   xmlns:rdf="http://www.w3.org/1999/02/22-rdf-syntax-ns#"
   xmlns:svg="http://www.w3.org/2000/svg"
   xmlns="http://www.w3.org/2000/svg"
   id="svg8"
   version="1.1"
   viewBox="0 0 27.114246 25.872625"
   height="25.872625mm"
   width="27.114246mm">
  <defs
     id="defs2" />
  <metadata
     id="metadata5">
    <rdf:RDF>
      <cc:Work
         rdf:about="">
        <dc:format>image/svg+xml</dc:format>
        <dc:type
           rdf:resource="http://purl.org/dc/dcmitype/StillImage" />
        <dc:title></dc:title>
      </cc:Work>
    </rdf:RDF>
  </metadata>
  <g
     transform="translate(51.492806,70.356695)"
     id="layer1">
    <path
       id="path258"
       d="m -38.679131,-45.459401 c -1.862459,-0.546508 -3.671243,-1.156567 -4.019518,-1.355687 -0.372959,-0.213234 -0.864193,-0.215828 -1.195162,-0.0063 -1.004638,0.635973 -6.20802,0.441544 -6.907674,-0.258111 -0.921762,-0.921761 -0.921762,-11.769717 0,-12.69148 0.694018,-0.694016 5.899851,-0.896291 6.892011,-0.267791 0.34162,0.216406 0.938616,0.114878 1.593548,-0.271007 1.589934,-0.93678 4.818109,-5.089162 5.097066,-6.556321 0.13589,-0.714708 0.494984,-1.792472 0.797987,-2.395032 0.460138,-0.915045 0.808143,-1.095565 2.112017,-1.095565 2.247225,0 3.616672,1.293957 3.884531,3.670396 0.114772,1.018249 0.01683,2.401709 -0.217662,3.074357 l -0.426338,1.222993 h 2.201052 c 1.920402,0 2.355325,0.154274 3.410988,1.209937 1.20157,1.20157 1.207959,1.231185 0.923775,4.282662 -0.157391,1.689998 -0.446741,3.37467 -0.643002,3.743712 -0.196261,0.369044 -0.356839,1.052455 -0.356839,1.518694 0,1.548482 -1.288986,4.967045 -2.253752,5.977259 -1.416893,1.483636 -6.213214,1.570509 -10.893028,0.197299 z m 9.697812,-0.24123 c 1.023585,-0.466376 1.855419,-1.873407 1.855419,-3.138402 0,-0.414984 0.160338,-0.85361 0.356305,-0.974725 0.363043,-0.224374 0.452401,-0.679787 1.288081,-6.564747 l 0.475942,-3.351638 -1.082381,-0.931025 c -0.892251,-0.767482 -1.53334,-0.931023 -3.649681,-0.931023 -1.412015,0 -2.5673,-0.06775 -2.5673,-0.150541 0,-0.0828 0.268912,-0.794137 0.597581,-1.580753 0.71353,-1.707722 0.768158,-3.574435 0.139552,-4.768689 -0.623145,-1.183881 -1.111591,-1.454517 -2.638015,-1.461662 -1.402171,-0.0066 -1.596627,0.265955 -2.438769,3.417786 -0.307627,1.151335 -1.259991,2.490362 -3.237632,4.552121 l -2.801805,2.92098 0.110105,5.557261 0.110106,5.557261 3.585485,1.121366 c 3.84716,1.203204 8.156408,1.519499 9.897004,0.72643 z m -15.076039,-7.724621 v -5.975808 h -3.187098 -3.187099 l -0.111359,5.558236 c -0.06125,3.057031 -0.01914,5.798553 0.09356,6.092273 0.152557,0.397553 0.995528,0.50427 3.298462,0.417571 l 3.093532,-0.116463 z m -4.39405,3.765601 c -0.418209,-0.676675 0.125002,-1.574471 0.952632,-1.574471 0.42166,0 0.861463,0.247066 0.977339,0.549036 0.401245,1.045626 -1.344299,1.973072 -1.929971,1.025435 z"
       style="fill:#000000;stroke-width:1" />
  </g>
</svg>
